<mxfile host="app.diagrams.net" agent="Mozilla/5.0 (Windows NT 10.0; Win64; x64) AppleWebKit/537.36 (KHTML, like Gecko) Chrome/138.0.0.0 Safari/537.36" version="27.1.6">
  <diagram name="Page-1" id="OlqElBG_Nj6P99MvwhES">
    <mxGraphModel dx="1937" dy="947" grid="1" gridSize="10" guides="1" tooltips="1" connect="1" arrows="1" fold="1" page="1" pageScale="1" pageWidth="850" pageHeight="1100" math="0" shadow="0">
      <root>
        <mxCell id="0" />
        <mxCell id="1" parent="0" />
        <mxCell id="p_iozzSVwlxw_jL1uEFu-4" value="Welcome Screen&lt;div&gt;(menu=0)&lt;/div&gt;" style="rounded=1;whiteSpace=wrap;html=1;" vertex="1" parent="1">
          <mxGeometry x="230" y="10" width="60" height="60" as="geometry" />
        </mxCell>
        <mxCell id="p_iozzSVwlxw_jL1uEFu-5" value="Manual/Calibration&lt;div&gt;(menu=1)&lt;/div&gt;" style="rounded=1;whiteSpace=wrap;html=1;" vertex="1" parent="1">
          <mxGeometry x="330" y="10" width="120" height="60" as="geometry" />
        </mxCell>
        <mxCell id="p_iozzSVwlxw_jL1uEFu-8" value="[#]" style="endArrow=classic;html=1;rounded=0;exitX=1;exitY=0.25;exitDx=0;exitDy=0;entryX=0;entryY=0.25;entryDx=0;entryDy=0;" edge="1" parent="1" source="p_iozzSVwlxw_jL1uEFu-4" target="p_iozzSVwlxw_jL1uEFu-5">
          <mxGeometry width="50" height="50" relative="1" as="geometry">
            <mxPoint x="230" as="sourcePoint" />
            <mxPoint x="280" y="-50" as="targetPoint" />
          </mxGeometry>
        </mxCell>
        <mxCell id="p_iozzSVwlxw_jL1uEFu-9" value="[*]" style="endArrow=classic;html=1;rounded=0;exitX=0;exitY=0.75;exitDx=0;exitDy=0;entryX=1;entryY=0.75;entryDx=0;entryDy=0;" edge="1" parent="1" source="p_iozzSVwlxw_jL1uEFu-5" target="p_iozzSVwlxw_jL1uEFu-4">
          <mxGeometry width="50" height="50" relative="1" as="geometry">
            <mxPoint x="230" as="sourcePoint" />
            <mxPoint x="280" y="-50" as="targetPoint" />
          </mxGeometry>
        </mxCell>
        <mxCell id="p_iozzSVwlxw_jL1uEFu-11" value="Github Link&lt;div&gt;(menu=-1)&lt;/div&gt;" style="rounded=1;whiteSpace=wrap;html=1;" vertex="1" parent="1">
          <mxGeometry x="90" y="10" width="70" height="60" as="geometry" />
        </mxCell>
        <mxCell id="p_iozzSVwlxw_jL1uEFu-12" value="[*]" style="endArrow=classic;html=1;rounded=0;exitX=0;exitY=0.75;exitDx=0;exitDy=0;entryX=1;entryY=0.75;entryDx=0;entryDy=0;" edge="1" parent="1" source="p_iozzSVwlxw_jL1uEFu-4" target="p_iozzSVwlxw_jL1uEFu-11">
          <mxGeometry width="50" height="50" relative="1" as="geometry">
            <mxPoint x="160" y="50" as="sourcePoint" />
            <mxPoint x="110" y="50" as="targetPoint" />
          </mxGeometry>
        </mxCell>
        <mxCell id="p_iozzSVwlxw_jL1uEFu-13" value="[#]" style="endArrow=classic;html=1;rounded=0;exitX=1;exitY=0.25;exitDx=0;exitDy=0;entryX=0;entryY=0.25;entryDx=0;entryDy=0;" edge="1" parent="1" source="p_iozzSVwlxw_jL1uEFu-11" target="p_iozzSVwlxw_jL1uEFu-4">
          <mxGeometry width="50" height="50" relative="1" as="geometry">
            <mxPoint x="340" y="40" as="sourcePoint" />
            <mxPoint x="140" y="-10" as="targetPoint" />
          </mxGeometry>
        </mxCell>
        <mxCell id="p_iozzSVwlxw_jL1uEFu-14" value="Reset Settings&lt;br&gt;&lt;div&gt;(menu=-2)&lt;/div&gt;" style="rounded=1;whiteSpace=wrap;html=1;fillColor=#a20025;fontColor=#ffffff;strokeColor=#6F0000;" vertex="1" parent="1">
          <mxGeometry x="90" y="110" width="70" height="60" as="geometry" />
        </mxCell>
        <mxCell id="p_iozzSVwlxw_jL1uEFu-15" value="[#]" style="endArrow=classic;html=1;rounded=0;exitX=0.75;exitY=0;exitDx=0;exitDy=0;entryX=0.75;entryY=1;entryDx=0;entryDy=0;" edge="1" parent="1" source="p_iozzSVwlxw_jL1uEFu-14" target="p_iozzSVwlxw_jL1uEFu-11">
          <mxGeometry width="50" height="50" relative="1" as="geometry">
            <mxPoint x="120" y="100" as="sourcePoint" />
            <mxPoint x="160" y="100" as="targetPoint" />
          </mxGeometry>
        </mxCell>
        <mxCell id="p_iozzSVwlxw_jL1uEFu-16" value="[*]" style="endArrow=classic;html=1;rounded=0;exitX=0.25;exitY=1;exitDx=0;exitDy=0;entryX=0.25;entryY=0;entryDx=0;entryDy=0;" edge="1" parent="1" source="p_iozzSVwlxw_jL1uEFu-11" target="p_iozzSVwlxw_jL1uEFu-14">
          <mxGeometry width="50" height="50" relative="1" as="geometry">
            <mxPoint x="220" y="80" as="sourcePoint" />
            <mxPoint x="180" y="80" as="targetPoint" />
          </mxGeometry>
        </mxCell>
        <mxCell id="p_iozzSVwlxw_jL1uEFu-17" value="[0&lt;span style=&quot;background-color: light-dark(#ffffff, var(--ge-dark-color, #121212)); color: light-dark(rgb(0, 0, 0), rgb(255, 255, 255));&quot;&gt;]&lt;/span&gt;" style="endArrow=classic;html=1;rounded=0;entryX=0.5;entryY=0;entryDx=0;entryDy=0;exitX=0.5;exitY=1;exitDx=0;exitDy=0;" edge="1" parent="1" source="p_iozzSVwlxw_jL1uEFu-14" target="p_iozzSVwlxw_jL1uEFu-18">
          <mxGeometry width="50" height="50" relative="1" as="geometry">
            <mxPoint x="90" y="190" as="sourcePoint" />
            <mxPoint x="69.66" y="210" as="targetPoint" />
          </mxGeometry>
        </mxCell>
        <mxCell id="p_iozzSVwlxw_jL1uEFu-18" value="Reset Complete&lt;br&gt;&lt;div&gt;(menu=-99)&lt;/div&gt;" style="rounded=1;whiteSpace=wrap;html=1;" vertex="1" parent="1">
          <mxGeometry x="90" y="217" width="100" height="60" as="geometry" />
        </mxCell>
        <mxCell id="p_iozzSVwlxw_jL1uEFu-19" value="[Any]" style="endArrow=classic;html=1;rounded=0;exitX=1;exitY=0.5;exitDx=0;exitDy=0;" edge="1" parent="1" source="p_iozzSVwlxw_jL1uEFu-18">
          <mxGeometry width="50" height="50" relative="1" as="geometry">
            <mxPoint x="200" y="230" as="sourcePoint" />
            <mxPoint x="230" y="70" as="targetPoint" />
          </mxGeometry>
        </mxCell>
        <mxCell id="p_iozzSVwlxw_jL1uEFu-20" value="Error screen&lt;div&gt;(menu=undefined)&lt;/div&gt;" style="rounded=1;whiteSpace=wrap;html=1;" vertex="1" parent="1">
          <mxGeometry x="205" y="217" width="110" height="60" as="geometry" />
        </mxCell>
        <mxCell id="p_iozzSVwlxw_jL1uEFu-21" value="[Any]" style="endArrow=classic;html=1;rounded=0;exitX=0.5;exitY=0;exitDx=0;exitDy=0;entryX=0.5;entryY=1;entryDx=0;entryDy=0;" edge="1" parent="1" source="p_iozzSVwlxw_jL1uEFu-20" target="p_iozzSVwlxw_jL1uEFu-4">
          <mxGeometry width="50" height="50" relative="1" as="geometry">
            <mxPoint x="230" y="270" as="sourcePoint" />
            <mxPoint x="300" y="140" as="targetPoint" />
          </mxGeometry>
        </mxCell>
        <mxCell id="p_iozzSVwlxw_jL1uEFu-22" value="[#]" style="endArrow=classic;html=1;rounded=0;exitX=1;exitY=0.25;exitDx=0;exitDy=0;entryX=0;entryY=0.25;entryDx=0;entryDy=0;" edge="1" parent="1" source="p_iozzSVwlxw_jL1uEFu-5" target="p_iozzSVwlxw_jL1uEFu-24">
          <mxGeometry width="50" height="50" relative="1" as="geometry">
            <mxPoint x="320" y="30" as="sourcePoint" />
            <mxPoint x="490" y="25" as="targetPoint" />
          </mxGeometry>
        </mxCell>
        <mxCell id="p_iozzSVwlxw_jL1uEFu-23" value="[*]" style="endArrow=classic;html=1;rounded=0;entryX=1;entryY=0.75;entryDx=0;entryDy=0;exitX=0;exitY=0.75;exitDx=0;exitDy=0;" edge="1" parent="1" source="p_iozzSVwlxw_jL1uEFu-24" target="p_iozzSVwlxw_jL1uEFu-5">
          <mxGeometry width="50" height="50" relative="1" as="geometry">
            <mxPoint x="490" y="55" as="sourcePoint" />
            <mxPoint x="320" y="80" as="targetPoint" />
          </mxGeometry>
        </mxCell>
        <mxCell id="p_iozzSVwlxw_jL1uEFu-24" value="Acquisition&lt;br&gt;&lt;div&gt;(menu=2)&lt;/div&gt;" style="rounded=1;whiteSpace=wrap;html=1;" vertex="1" parent="1">
          <mxGeometry x="720" y="10" width="120" height="60" as="geometry" />
        </mxCell>
        <mxCell id="p_iozzSVwlxw_jL1uEFu-27" value="" style="endArrow=classic;html=1;rounded=0;exitX=0.25;exitY=1;exitDx=0;exitDy=0;entryX=0;entryY=0.5;entryDx=0;entryDy=0;" edge="1" parent="1" source="p_iozzSVwlxw_jL1uEFu-5" target="p_iozzSVwlxw_jL1uEFu-28">
          <mxGeometry width="50" height="50" relative="1" as="geometry">
            <mxPoint x="500" y="220" as="sourcePoint" />
            <mxPoint x="380" y="130" as="targetPoint" />
            <Array as="points">
              <mxPoint x="360" y="140" />
            </Array>
          </mxGeometry>
        </mxCell>
        <mxCell id="p_iozzSVwlxw_jL1uEFu-28" value="Calibrate&lt;div&gt;(menu=16)&lt;/div&gt;" style="rounded=1;whiteSpace=wrap;html=1;fillColor=#fa6800;fontColor=#000000;strokeColor=#C73500;" vertex="1" parent="1">
          <mxGeometry x="390" y="110" width="90" height="60" as="geometry" />
        </mxCell>
        <mxCell id="p_iozzSVwlxw_jL1uEFu-31" value="[1]" style="text;html=1;align=center;verticalAlign=middle;resizable=0;points=[];autosize=1;strokeColor=none;fillColor=none;" vertex="1" parent="1">
          <mxGeometry x="353" y="110" width="40" height="30" as="geometry" />
        </mxCell>
        <mxCell id="p_iozzSVwlxw_jL1uEFu-32" value="Move Stepper Y+&lt;br&gt;&lt;div&gt;(menu=14)&lt;/div&gt;" style="rounded=1;whiteSpace=wrap;html=1;fillColor=#1ba1e2;fontColor=#ffffff;strokeColor=#006EAF;" vertex="1" parent="1">
          <mxGeometry x="389" y="180" width="91" height="60" as="geometry" />
        </mxCell>
        <mxCell id="p_iozzSVwlxw_jL1uEFu-33" value="" style="endArrow=classic;html=1;rounded=0;exitX=0.25;exitY=1;exitDx=0;exitDy=0;entryX=0;entryY=0.5;entryDx=0;entryDy=0;" edge="1" parent="1" source="p_iozzSVwlxw_jL1uEFu-5" target="p_iozzSVwlxw_jL1uEFu-32">
          <mxGeometry width="50" height="50" relative="1" as="geometry">
            <mxPoint x="330" y="151" as="sourcePoint" />
            <mxPoint x="370" y="220" as="targetPoint" />
            <Array as="points">
              <mxPoint x="360" y="210" />
            </Array>
          </mxGeometry>
        </mxCell>
        <mxCell id="p_iozzSVwlxw_jL1uEFu-34" value="[2]" style="text;html=1;align=center;verticalAlign=middle;resizable=0;points=[];autosize=1;strokeColor=none;fillColor=none;" vertex="1" parent="1">
          <mxGeometry x="353" y="180" width="40" height="30" as="geometry" />
        </mxCell>
        <mxCell id="p_iozzSVwlxw_jL1uEFu-35" value="See Calibration Points&lt;br&gt;&lt;div&gt;(menu=17)&lt;/div&gt;" style="rounded=1;whiteSpace=wrap;html=1;fillColor=#fa6800;fontColor=#000000;strokeColor=#C73500;" vertex="1" parent="1">
          <mxGeometry x="389" y="250" width="91" height="60" as="geometry" />
        </mxCell>
        <mxCell id="p_iozzSVwlxw_jL1uEFu-36" value="" style="endArrow=classic;html=1;rounded=0;exitX=0.25;exitY=1;exitDx=0;exitDy=0;entryX=0;entryY=0.5;entryDx=0;entryDy=0;" edge="1" parent="1" source="p_iozzSVwlxw_jL1uEFu-5" target="p_iozzSVwlxw_jL1uEFu-35">
          <mxGeometry width="50" height="50" relative="1" as="geometry">
            <mxPoint x="380" y="190" as="sourcePoint" />
            <mxPoint x="419" y="330" as="targetPoint" />
            <Array as="points">
              <mxPoint x="360" y="280" />
            </Array>
          </mxGeometry>
        </mxCell>
        <mxCell id="p_iozzSVwlxw_jL1uEFu-37" value="[3]" style="text;html=1;align=center;verticalAlign=middle;resizable=0;points=[];autosize=1;strokeColor=none;fillColor=none;" vertex="1" parent="1">
          <mxGeometry x="353" y="250" width="40" height="30" as="geometry" />
        </mxCell>
        <mxCell id="p_iozzSVwlxw_jL1uEFu-39" value="Move Stepper X-&lt;br&gt;&lt;div&gt;(menu=11)&lt;/div&gt;" style="rounded=1;whiteSpace=wrap;html=1;fillColor=#1ba1e2;fontColor=#ffffff;strokeColor=#006EAF;" vertex="1" parent="1">
          <mxGeometry x="389" y="320" width="91" height="60" as="geometry" />
        </mxCell>
        <mxCell id="p_iozzSVwlxw_jL1uEFu-40" value="" style="endArrow=classic;html=1;rounded=0;exitX=0.25;exitY=1;exitDx=0;exitDy=0;entryX=0;entryY=0.5;entryDx=0;entryDy=0;" edge="1" parent="1" source="p_iozzSVwlxw_jL1uEFu-5" target="p_iozzSVwlxw_jL1uEFu-39">
          <mxGeometry width="50" height="50" relative="1" as="geometry">
            <mxPoint x="310" y="260" as="sourcePoint" />
            <mxPoint x="339" y="470" as="targetPoint" />
            <Array as="points">
              <mxPoint x="360" y="350" />
            </Array>
          </mxGeometry>
        </mxCell>
        <mxCell id="p_iozzSVwlxw_jL1uEFu-41" value="[4]" style="text;html=1;align=center;verticalAlign=middle;resizable=0;points=[];autosize=1;strokeColor=none;fillColor=none;" vertex="1" parent="1">
          <mxGeometry x="353" y="320" width="40" height="30" as="geometry" />
        </mxCell>
        <mxCell id="p_iozzSVwlxw_jL1uEFu-42" value="View Steps&lt;br&gt;&lt;div&gt;(menu=10)&lt;/div&gt;" style="rounded=1;whiteSpace=wrap;html=1;" vertex="1" parent="1">
          <mxGeometry x="390" y="390" width="90" height="60" as="geometry" />
        </mxCell>
        <mxCell id="p_iozzSVwlxw_jL1uEFu-43" value="" style="endArrow=classic;html=1;rounded=0;exitX=0.25;exitY=1;exitDx=0;exitDy=0;entryX=0;entryY=0.5;entryDx=0;entryDy=0;" edge="1" parent="1" source="p_iozzSVwlxw_jL1uEFu-5" target="p_iozzSVwlxw_jL1uEFu-42">
          <mxGeometry width="50" height="50" relative="1" as="geometry">
            <mxPoint x="324" y="160" as="sourcePoint" />
            <mxPoint x="353" y="440" as="targetPoint" />
            <Array as="points">
              <mxPoint x="360" y="420" />
            </Array>
          </mxGeometry>
        </mxCell>
        <mxCell id="p_iozzSVwlxw_jL1uEFu-44" value="[5]" style="text;html=1;align=center;verticalAlign=middle;resizable=0;points=[];autosize=1;strokeColor=none;fillColor=none;" vertex="1" parent="1">
          <mxGeometry x="353" y="390" width="40" height="30" as="geometry" />
        </mxCell>
        <mxCell id="p_iozzSVwlxw_jL1uEFu-45" value="Move Stepper X+&lt;br&gt;&lt;div&gt;(menu=12)&lt;/div&gt;" style="rounded=1;whiteSpace=wrap;html=1;fillColor=#1ba1e2;fontColor=#ffffff;strokeColor=#006EAF;" vertex="1" parent="1">
          <mxGeometry x="390" y="460" width="90" height="60" as="geometry" />
        </mxCell>
        <mxCell id="p_iozzSVwlxw_jL1uEFu-46" value="" style="endArrow=classic;html=1;rounded=0;exitX=0.25;exitY=1;exitDx=0;exitDy=0;entryX=0;entryY=0.5;entryDx=0;entryDy=0;" edge="1" parent="1" source="p_iozzSVwlxw_jL1uEFu-5" target="p_iozzSVwlxw_jL1uEFu-45">
          <mxGeometry width="50" height="50" relative="1" as="geometry">
            <mxPoint x="323" y="390" as="sourcePoint" />
            <mxPoint x="353" y="740" as="targetPoint" />
            <Array as="points">
              <mxPoint x="360" y="490" />
            </Array>
          </mxGeometry>
        </mxCell>
        <mxCell id="p_iozzSVwlxw_jL1uEFu-47" value="[6]" style="text;html=1;align=center;verticalAlign=middle;resizable=0;points=[];autosize=1;strokeColor=none;fillColor=none;" vertex="1" parent="1">
          <mxGeometry x="353" y="460" width="40" height="30" as="geometry" />
        </mxCell>
        <mxCell id="p_iozzSVwlxw_jL1uEFu-48" value="Move Stepper Y-&lt;br&gt;&lt;div&gt;(menu=13)&lt;/div&gt;" style="rounded=1;whiteSpace=wrap;html=1;fillColor=#1ba1e2;fontColor=#ffffff;strokeColor=#006EAF;" vertex="1" parent="1">
          <mxGeometry x="389" y="530" width="91" height="60" as="geometry" />
        </mxCell>
        <mxCell id="p_iozzSVwlxw_jL1uEFu-49" value="" style="endArrow=classic;html=1;rounded=0;exitX=0.25;exitY=1;exitDx=0;exitDy=0;entryX=0;entryY=0.5;entryDx=0;entryDy=0;" edge="1" parent="1" source="p_iozzSVwlxw_jL1uEFu-5" target="p_iozzSVwlxw_jL1uEFu-48">
          <mxGeometry width="50" height="50" relative="1" as="geometry">
            <mxPoint x="280" y="250" as="sourcePoint" />
            <mxPoint x="310" y="670" as="targetPoint" />
            <Array as="points">
              <mxPoint x="360" y="560" />
            </Array>
          </mxGeometry>
        </mxCell>
        <mxCell id="p_iozzSVwlxw_jL1uEFu-50" value="[8]" style="text;html=1;align=center;verticalAlign=middle;resizable=0;points=[];autosize=1;strokeColor=none;fillColor=none;" vertex="1" parent="1">
          <mxGeometry x="353" y="530" width="40" height="30" as="geometry" />
        </mxCell>
        <mxCell id="p_iozzSVwlxw_jL1uEFu-51" value="Movement Settings&lt;br&gt;&lt;div&gt;(menu=15)&lt;/div&gt;" style="rounded=1;whiteSpace=wrap;html=1;fillColor=#a20025;fontColor=#ffffff;strokeColor=#6F0000;" vertex="1" parent="1">
          <mxGeometry x="389" y="600" width="91" height="60" as="geometry" />
        </mxCell>
        <mxCell id="p_iozzSVwlxw_jL1uEFu-52" value="" style="endArrow=classic;html=1;rounded=0;exitX=0.25;exitY=1;exitDx=0;exitDy=0;entryX=0;entryY=0.5;entryDx=0;entryDy=0;" edge="1" parent="1" source="p_iozzSVwlxw_jL1uEFu-5" target="p_iozzSVwlxw_jL1uEFu-51">
          <mxGeometry width="50" height="50" relative="1" as="geometry">
            <mxPoint x="310" y="130" as="sourcePoint" />
            <mxPoint x="339" y="620" as="targetPoint" />
            <Array as="points">
              <mxPoint x="360" y="630" />
            </Array>
          </mxGeometry>
        </mxCell>
        <mxCell id="p_iozzSVwlxw_jL1uEFu-53" value="[0]" style="text;html=1;align=center;verticalAlign=middle;resizable=0;points=[];autosize=1;strokeColor=none;fillColor=none;" vertex="1" parent="1">
          <mxGeometry x="353" y="600" width="40" height="30" as="geometry" />
        </mxCell>
        <mxCell id="p_iozzSVwlxw_jL1uEFu-55" value="" style="endArrow=classic;html=1;rounded=0;exitX=1;exitY=0.5;exitDx=0;exitDy=0;entryX=0.5;entryY=1;entryDx=0;entryDy=0;" edge="1" parent="1" source="p_iozzSVwlxw_jL1uEFu-32" target="p_iozzSVwlxw_jL1uEFu-5">
          <mxGeometry width="50" height="50" relative="1" as="geometry">
            <mxPoint x="560" y="200" as="sourcePoint" />
            <mxPoint x="390" y="100" as="targetPoint" />
            <Array as="points">
              <mxPoint x="520" y="210" />
              <mxPoint x="520" y="150" />
              <mxPoint x="520" y="100" />
              <mxPoint x="390" y="100" />
            </Array>
          </mxGeometry>
        </mxCell>
        <mxCell id="p_iozzSVwlxw_jL1uEFu-57" value="" style="endArrow=classic;html=1;rounded=0;exitX=1;exitY=0.5;exitDx=0;exitDy=0;entryX=0.5;entryY=1;entryDx=0;entryDy=0;" edge="1" parent="1" source="p_iozzSVwlxw_jL1uEFu-39" target="p_iozzSVwlxw_jL1uEFu-5">
          <mxGeometry width="50" height="50" relative="1" as="geometry">
            <mxPoint x="630" y="260" as="sourcePoint" />
            <mxPoint x="520" y="100" as="targetPoint" />
            <Array as="points">
              <mxPoint x="520" y="350" />
              <mxPoint x="520" y="100" />
              <mxPoint x="390" y="100" />
            </Array>
          </mxGeometry>
        </mxCell>
        <mxCell id="p_iozzSVwlxw_jL1uEFu-58" value="" style="endArrow=classic;html=1;rounded=0;exitX=1;exitY=0.5;exitDx=0;exitDy=0;entryX=0.5;entryY=1;entryDx=0;entryDy=0;" edge="1" parent="1" source="p_iozzSVwlxw_jL1uEFu-45" target="p_iozzSVwlxw_jL1uEFu-5">
          <mxGeometry width="50" height="50" relative="1" as="geometry">
            <mxPoint x="689" y="510" as="sourcePoint" />
            <mxPoint x="570" y="230" as="targetPoint" />
            <Array as="points">
              <mxPoint x="520" y="490" />
              <mxPoint x="520" y="100" />
              <mxPoint x="390" y="100" />
            </Array>
          </mxGeometry>
        </mxCell>
        <mxCell id="p_iozzSVwlxw_jL1uEFu-59" value="" style="endArrow=classic;html=1;rounded=0;exitX=1;exitY=0.5;exitDx=0;exitDy=0;entryX=0.5;entryY=1;entryDx=0;entryDy=0;" edge="1" parent="1" source="p_iozzSVwlxw_jL1uEFu-48" target="p_iozzSVwlxw_jL1uEFu-5">
          <mxGeometry width="50" height="50" relative="1" as="geometry">
            <mxPoint x="730" y="670" as="sourcePoint" />
            <mxPoint x="610" y="250" as="targetPoint" />
            <Array as="points">
              <mxPoint x="520" y="560" />
              <mxPoint x="520" y="100" />
              <mxPoint x="390" y="100" />
            </Array>
          </mxGeometry>
        </mxCell>
        <mxCell id="p_iozzSVwlxw_jL1uEFu-60" value="" style="endArrow=classic;html=1;rounded=0;exitX=1;exitY=0.5;exitDx=0;exitDy=0;" edge="1" parent="1" source="p_iozzSVwlxw_jL1uEFu-28">
          <mxGeometry width="50" height="50" relative="1" as="geometry">
            <mxPoint x="430" y="340" as="sourcePoint" />
            <mxPoint x="560" y="140" as="targetPoint" />
          </mxGeometry>
        </mxCell>
        <mxCell id="p_iozzSVwlxw_jL1uEFu-62" value="" style="endArrow=classic;html=1;rounded=0;exitX=1;exitY=0.5;exitDx=0;exitDy=0;entryX=0.5;entryY=1;entryDx=0;entryDy=0;" edge="1" parent="1" source="p_iozzSVwlxw_jL1uEFu-42" target="p_iozzSVwlxw_jL1uEFu-5">
          <mxGeometry width="50" height="50" relative="1" as="geometry">
            <mxPoint x="580" y="320" as="sourcePoint" />
            <mxPoint x="560" y="420" as="targetPoint" />
            <Array as="points">
              <mxPoint x="520" y="420" />
              <mxPoint x="520" y="100" />
              <mxPoint x="390" y="100" />
            </Array>
          </mxGeometry>
        </mxCell>
        <mxCell id="p_iozzSVwlxw_jL1uEFu-63" value="" style="endArrow=classic;html=1;rounded=0;exitX=1;exitY=0.5;exitDx=0;exitDy=0;entryX=0.5;entryY=1;entryDx=0;entryDy=0;" edge="1" parent="1" source="p_iozzSVwlxw_jL1uEFu-51" target="p_iozzSVwlxw_jL1uEFu-5">
          <mxGeometry width="50" height="50" relative="1" as="geometry">
            <mxPoint x="600" y="500" as="sourcePoint" />
            <mxPoint x="520" y="560" as="targetPoint" />
            <Array as="points">
              <mxPoint x="520" y="630" />
              <mxPoint x="520" y="100" />
              <mxPoint x="390" y="100" />
            </Array>
          </mxGeometry>
        </mxCell>
        <mxCell id="p_iozzSVwlxw_jL1uEFu-64" value="[#/*]" style="text;html=1;align=center;verticalAlign=middle;resizable=0;points=[];autosize=1;strokeColor=none;fillColor=none;" vertex="1" parent="1">
          <mxGeometry x="480" y="604" width="40" height="30" as="geometry" />
        </mxCell>
        <mxCell id="p_iozzSVwlxw_jL1uEFu-65" value="" style="endArrow=classic;html=1;rounded=0;exitX=0.25;exitY=1;exitDx=0;exitDy=0;entryX=0.5;entryY=0;entryDx=0;entryDy=0;" edge="1" parent="1" source="p_iozzSVwlxw_jL1uEFu-51" target="p_iozzSVwlxw_jL1uEFu-80">
          <mxGeometry width="50" height="50" relative="1" as="geometry">
            <mxPoint x="400" y="760" as="sourcePoint" />
            <mxPoint x="360" y="710" as="targetPoint" />
          </mxGeometry>
        </mxCell>
        <mxCell id="p_iozzSVwlxw_jL1uEFu-66" value="" style="endArrow=classic;html=1;rounded=0;exitX=0.75;exitY=1;exitDx=0;exitDy=0;entryX=0.5;entryY=0;entryDx=0;entryDy=0;" edge="1" parent="1" source="p_iozzSVwlxw_jL1uEFu-51" target="p_iozzSVwlxw_jL1uEFu-81">
          <mxGeometry width="50" height="50" relative="1" as="geometry">
            <mxPoint x="520" y="770" as="sourcePoint" />
            <mxPoint x="500" y="720" as="targetPoint" />
          </mxGeometry>
        </mxCell>
        <mxCell id="p_iozzSVwlxw_jL1uEFu-67" value="[#]" style="text;html=1;align=center;verticalAlign=middle;resizable=0;points=[];autosize=1;strokeColor=none;fillColor=none;" vertex="1" parent="1">
          <mxGeometry x="520" y="110" width="40" height="30" as="geometry" />
        </mxCell>
        <mxCell id="p_iozzSVwlxw_jL1uEFu-69" value="[#/*]" style="text;html=1;align=center;verticalAlign=middle;resizable=0;points=[];autosize=1;strokeColor=none;fillColor=none;" vertex="1" parent="1">
          <mxGeometry x="300" y="395" width="40" height="30" as="geometry" />
        </mxCell>
        <mxCell id="p_iozzSVwlxw_jL1uEFu-71" value="Scroll between points" style="rounded=1;whiteSpace=wrap;html=1;fillColor=#fa6800;fontColor=#000000;strokeColor=#C73500;" vertex="1" parent="1">
          <mxGeometry x="230" y="390" width="60" height="60" as="geometry" />
        </mxCell>
        <mxCell id="p_iozzSVwlxw_jL1uEFu-72" value="Delete point" style="rounded=1;whiteSpace=wrap;html=1;fillColor=#fa6800;fontColor=#000000;strokeColor=#C73500;" vertex="1" parent="1">
          <mxGeometry x="230" y="330" width="60" height="40" as="geometry" />
        </mxCell>
        <mxCell id="p_iozzSVwlxw_jL1uEFu-74" value="[1]" style="text;html=1;align=center;verticalAlign=middle;resizable=0;points=[];autosize=1;strokeColor=none;fillColor=none;" vertex="1" parent="1">
          <mxGeometry x="300" y="300" width="40" height="30" as="geometry" />
        </mxCell>
        <mxCell id="p_iozzSVwlxw_jL1uEFu-75" value="" style="endArrow=classic;html=1;rounded=0;exitX=1;exitY=0.25;exitDx=0;exitDy=0;entryX=0.5;entryY=1;entryDx=0;entryDy=0;" edge="1" parent="1" source="p_iozzSVwlxw_jL1uEFu-35" target="p_iozzSVwlxw_jL1uEFu-5">
          <mxGeometry width="50" height="50" relative="1" as="geometry">
            <mxPoint x="480" y="210" as="sourcePoint" />
            <mxPoint x="530" y="160" as="targetPoint" />
            <Array as="points">
              <mxPoint x="520" y="250" />
              <mxPoint x="520" y="100" />
              <mxPoint x="390" y="100" />
            </Array>
          </mxGeometry>
        </mxCell>
        <mxCell id="p_iozzSVwlxw_jL1uEFu-76" value="[0]" style="text;html=1;align=center;verticalAlign=middle;resizable=0;points=[];autosize=1;strokeColor=none;fillColor=none;" vertex="1" parent="1">
          <mxGeometry x="477" y="232" width="40" height="30" as="geometry" />
        </mxCell>
        <mxCell id="p_iozzSVwlxw_jL1uEFu-77" value="[Any]" style="text;html=1;align=center;verticalAlign=middle;resizable=0;points=[];autosize=1;strokeColor=none;fillColor=none;" vertex="1" parent="1">
          <mxGeometry x="474" y="395" width="50" height="30" as="geometry" />
        </mxCell>
        <mxCell id="p_iozzSVwlxw_jL1uEFu-78" value="" style="endArrow=classic;startArrow=classic;html=1;rounded=0;exitX=0;exitY=0.75;exitDx=0;exitDy=0;entryX=1;entryY=0.5;entryDx=0;entryDy=0;" edge="1" parent="1" source="p_iozzSVwlxw_jL1uEFu-35" target="p_iozzSVwlxw_jL1uEFu-72">
          <mxGeometry width="50" height="50" relative="1" as="geometry">
            <mxPoint x="470" y="330" as="sourcePoint" />
            <mxPoint x="520" y="280" as="targetPoint" />
          </mxGeometry>
        </mxCell>
        <mxCell id="p_iozzSVwlxw_jL1uEFu-79" value="" style="endArrow=classic;startArrow=classic;html=1;rounded=0;exitX=0;exitY=0.75;exitDx=0;exitDy=0;entryX=1;entryY=0.5;entryDx=0;entryDy=0;" edge="1" parent="1" source="p_iozzSVwlxw_jL1uEFu-35" target="p_iozzSVwlxw_jL1uEFu-71">
          <mxGeometry width="50" height="50" relative="1" as="geometry">
            <mxPoint x="470" y="330" as="sourcePoint" />
            <mxPoint x="520" y="280" as="targetPoint" />
          </mxGeometry>
        </mxCell>
        <mxCell id="p_iozzSVwlxw_jL1uEFu-80" value="Set Steps&lt;br&gt;&lt;div&gt;(menu=150)&lt;/div&gt;&lt;div&gt;&lt;br&gt;&lt;/div&gt;&lt;div&gt;* to erase, numbers to write, # to save.&lt;/div&gt;" style="rounded=1;whiteSpace=wrap;html=1;fillColor=#a20025;fontColor=#ffffff;strokeColor=#6F0000;" vertex="1" parent="1">
          <mxGeometry x="262" y="708" width="91" height="100" as="geometry" />
        </mxCell>
        <mxCell id="p_iozzSVwlxw_jL1uEFu-81" value="Set Delay (ms)&lt;br&gt;&lt;div&gt;(menu=152)&lt;/div&gt;&lt;div&gt;&lt;br&gt;&lt;/div&gt;&lt;div&gt;* to erase, numbers to write, # to save.&lt;/div&gt;" style="rounded=1;whiteSpace=wrap;html=1;fillColor=#a20025;fontColor=#ffffff;strokeColor=#6F0000;" vertex="1" parent="1">
          <mxGeometry x="359" y="708" width="91" height="100" as="geometry" />
        </mxCell>
        <mxCell id="p_iozzSVwlxw_jL1uEFu-82" value="[0]" style="text;html=1;align=center;verticalAlign=middle;resizable=0;points=[];autosize=1;strokeColor=none;fillColor=none;" vertex="1" parent="1">
          <mxGeometry x="350" y="676" width="40" height="30" as="geometry" />
        </mxCell>
        <mxCell id="p_iozzSVwlxw_jL1uEFu-83" value="[1&lt;span style=&quot;background-color: transparent; color: light-dark(rgb(0, 0, 0), rgb(255, 255, 255));&quot;&gt;]&lt;/span&gt;" style="text;html=1;align=center;verticalAlign=middle;resizable=0;points=[];autosize=1;strokeColor=none;fillColor=none;" vertex="1" parent="1">
          <mxGeometry x="396" y="665" width="40" height="30" as="geometry" />
        </mxCell>
        <mxCell id="p_iozzSVwlxw_jL1uEFu-84" value="" style="endArrow=classic;html=1;rounded=0;exitX=0.25;exitY=0;exitDx=0;exitDy=0;entryX=0.25;entryY=1;entryDx=0;entryDy=0;" edge="1" parent="1" source="p_iozzSVwlxw_jL1uEFu-80" target="p_iozzSVwlxw_jL1uEFu-51">
          <mxGeometry width="50" height="50" relative="1" as="geometry">
            <mxPoint x="300" y="700" as="sourcePoint" />
            <mxPoint x="350" y="650" as="targetPoint" />
          </mxGeometry>
        </mxCell>
        <mxCell id="p_iozzSVwlxw_jL1uEFu-85" value="" style="endArrow=classic;html=1;rounded=0;exitX=0.75;exitY=0;exitDx=0;exitDy=0;entryX=0.75;entryY=1;entryDx=0;entryDy=0;" edge="1" parent="1" source="p_iozzSVwlxw_jL1uEFu-81" target="p_iozzSVwlxw_jL1uEFu-51">
          <mxGeometry width="50" height="50" relative="1" as="geometry">
            <mxPoint x="400" y="785" as="sourcePoint" />
            <mxPoint x="432" y="700" as="targetPoint" />
          </mxGeometry>
        </mxCell>
        <mxCell id="p_iozzSVwlxw_jL1uEFu-86" value="[#]" style="text;html=1;align=center;verticalAlign=middle;resizable=0;points=[];autosize=1;strokeColor=none;fillColor=none;" vertex="1" parent="1">
          <mxGeometry x="262" y="678" width="40" height="30" as="geometry" />
        </mxCell>
        <mxCell id="p_iozzSVwlxw_jL1uEFu-87" value="[#]" style="text;html=1;align=center;verticalAlign=middle;resizable=0;points=[];autosize=1;strokeColor=none;fillColor=none;" vertex="1" parent="1">
          <mxGeometry x="431" y="683" width="40" height="30" as="geometry" />
        </mxCell>
        <mxCell id="p_iozzSVwlxw_jL1uEFu-88" value="dX (nm)&lt;br&gt;&lt;div&gt;(menu=161)&lt;/div&gt;&lt;div&gt;&lt;br&gt;&lt;/div&gt;&lt;div&gt;* to erase, numbers to write, # to save.&lt;/div&gt;" style="rounded=1;whiteSpace=wrap;html=1;fillColor=#fa6800;fontColor=#000000;strokeColor=#C73500;" vertex="1" parent="1">
          <mxGeometry x="564" y="100" width="91" height="90" as="geometry" />
        </mxCell>
        <mxCell id="p_iozzSVwlxw_jL1uEFu-89" value="dX (steps)&lt;br&gt;&lt;div&gt;(menu=162)&lt;/div&gt;&lt;div&gt;&lt;br&gt;&lt;/div&gt;&lt;div&gt;* to erase, numbers to write, # to save.&lt;/div&gt;" style="rounded=1;whiteSpace=wrap;html=1;fillColor=#fa6800;fontColor=#000000;strokeColor=#C73500;" vertex="1" parent="1">
          <mxGeometry x="564" y="230" width="91" height="90" as="geometry" />
        </mxCell>
        <mxCell id="p_iozzSVwlxw_jL1uEFu-90" value="dY (nm)&lt;br&gt;&lt;div&gt;(menu=163)&lt;/div&gt;&lt;div&gt;&lt;br&gt;&lt;/div&gt;&lt;div&gt;* to erase, numbers to write, # to save.&lt;/div&gt;" style="rounded=1;whiteSpace=wrap;html=1;fillColor=#fa6800;fontColor=#000000;strokeColor=#C73500;" vertex="1" parent="1">
          <mxGeometry x="564" y="360" width="91" height="90" as="geometry" />
        </mxCell>
        <mxCell id="p_iozzSVwlxw_jL1uEFu-91" value="dY (steps)&lt;br&gt;&lt;div&gt;(menu=164)&lt;/div&gt;&lt;div&gt;&lt;br&gt;&lt;/div&gt;&lt;div&gt;* to erase, numbers to write, # to save.&lt;/div&gt;" style="rounded=1;whiteSpace=wrap;html=1;fillColor=#fa6800;fontColor=#000000;strokeColor=#C73500;" vertex="1" parent="1">
          <mxGeometry x="564" y="490" width="91" height="90" as="geometry" />
        </mxCell>
        <mxCell id="p_iozzSVwlxw_jL1uEFu-92" value="[#]" style="endArrow=classic;html=1;rounded=0;entryX=0.5;entryY=0;entryDx=0;entryDy=0;exitX=0.5;exitY=1;exitDx=0;exitDy=0;" edge="1" parent="1" source="p_iozzSVwlxw_jL1uEFu-88" target="p_iozzSVwlxw_jL1uEFu-89">
          <mxGeometry width="50" height="50" relative="1" as="geometry">
            <mxPoint x="470" y="280" as="sourcePoint" />
            <mxPoint x="520" y="230" as="targetPoint" />
          </mxGeometry>
        </mxCell>
        <mxCell id="p_iozzSVwlxw_jL1uEFu-95" value="[#]" style="endArrow=classic;html=1;rounded=0;entryX=0.5;entryY=0;entryDx=0;entryDy=0;exitX=0.5;exitY=1;exitDx=0;exitDy=0;" edge="1" parent="1" source="p_iozzSVwlxw_jL1uEFu-90" target="p_iozzSVwlxw_jL1uEFu-91">
          <mxGeometry width="50" height="50" relative="1" as="geometry">
            <mxPoint x="690" y="400" as="sourcePoint" />
            <mxPoint x="690" y="440" as="targetPoint" />
          </mxGeometry>
        </mxCell>
        <mxCell id="p_iozzSVwlxw_jL1uEFu-96" value="[#]" style="endArrow=classic;html=1;rounded=0;entryX=0.5;entryY=0;entryDx=0;entryDy=0;exitX=0.5;exitY=1;exitDx=0;exitDy=0;" edge="1" parent="1" source="p_iozzSVwlxw_jL1uEFu-89" target="p_iozzSVwlxw_jL1uEFu-90">
          <mxGeometry width="50" height="50" relative="1" as="geometry">
            <mxPoint x="650" y="490" as="sourcePoint" />
            <mxPoint x="650" y="530" as="targetPoint" />
          </mxGeometry>
        </mxCell>
        <mxCell id="p_iozzSVwlxw_jL1uEFu-102" value="Calibration point add success&lt;div&gt;(menu=165)&lt;/div&gt;&lt;div&gt;&lt;br&gt;&lt;/div&gt;&lt;div&gt;(+1 Npoints)&lt;/div&gt;" style="rounded=1;whiteSpace=wrap;html=1;fillColor=#fa6800;fontColor=#000000;strokeColor=#C73500;" vertex="1" parent="1">
          <mxGeometry x="474" y="718" width="91" height="90" as="geometry" />
        </mxCell>
        <mxCell id="p_iozzSVwlxw_jL1uEFu-103" value="Calibration point add fail&lt;div&gt;(menu=166)&lt;/div&gt;" style="rounded=1;whiteSpace=wrap;html=1;fillColor=#fa6800;fontColor=#000000;strokeColor=#C73500;" vertex="1" parent="1">
          <mxGeometry x="600" y="718" width="82.5" height="90" as="geometry" />
        </mxCell>
        <mxCell id="p_iozzSVwlxw_jL1uEFu-107" value="" style="endArrow=classic;html=1;rounded=0;exitX=0.25;exitY=1;exitDx=0;exitDy=0;entryX=0.5;entryY=0;entryDx=0;entryDy=0;" edge="1" parent="1" source="p_iozzSVwlxw_jL1uEFu-24" target="p_iozzSVwlxw_jL1uEFu-111">
          <mxGeometry width="50" height="50" relative="1" as="geometry">
            <mxPoint x="590" y="270" as="sourcePoint" />
            <mxPoint x="700" y="100" as="targetPoint" />
          </mxGeometry>
        </mxCell>
        <mxCell id="p_iozzSVwlxw_jL1uEFu-108" value="" style="endArrow=classic;html=1;rounded=0;exitX=0.75;exitY=1;exitDx=0;exitDy=0;entryX=0.5;entryY=0;entryDx=0;entryDy=0;" edge="1" parent="1" source="p_iozzSVwlxw_jL1uEFu-24" target="p_iozzSVwlxw_jL1uEFu-135">
          <mxGeometry width="50" height="50" relative="1" as="geometry">
            <mxPoint x="810" y="130" as="sourcePoint" />
            <mxPoint x="850" y="100" as="targetPoint" />
          </mxGeometry>
        </mxCell>
        <mxCell id="p_iozzSVwlxw_jL1uEFu-109" value="[0]" style="text;html=1;align=center;verticalAlign=middle;resizable=0;points=[];autosize=1;strokeColor=none;fillColor=none;" vertex="1" parent="1">
          <mxGeometry x="730" y="73" width="40" height="30" as="geometry" />
        </mxCell>
        <mxCell id="p_iozzSVwlxw_jL1uEFu-110" value="[1]" style="text;html=1;align=center;verticalAlign=middle;resizable=0;points=[];autosize=1;strokeColor=none;fillColor=none;" vertex="1" parent="1">
          <mxGeometry x="840" y="60" width="40" height="30" as="geometry" />
        </mxCell>
        <mxCell id="p_iozzSVwlxw_jL1uEFu-111" value="Settings: Rows&lt;div&gt;(menu=200)&lt;/div&gt;&lt;div&gt;* to erase, numbers to write, # to save.&lt;/div&gt;" style="rounded=1;whiteSpace=wrap;html=1;fillColor=#008a00;strokeColor=#005700;fontColor=#ffffff;" vertex="1" parent="1">
          <mxGeometry x="670" y="100" width="91" height="90" as="geometry" />
        </mxCell>
        <mxCell id="p_iozzSVwlxw_jL1uEFu-112" value="[#]" style="endArrow=classic;html=1;rounded=0;exitX=0.5;exitY=1;exitDx=0;exitDy=0;entryX=0.5;entryY=0;entryDx=0;entryDy=0;" edge="1" parent="1" source="p_iozzSVwlxw_jL1uEFu-111" target="p_iozzSVwlxw_jL1uEFu-113">
          <mxGeometry x="-0.0001" width="50" height="50" relative="1" as="geometry">
            <mxPoint x="670" y="240" as="sourcePoint" />
            <mxPoint x="716" y="250" as="targetPoint" />
            <mxPoint as="offset" />
          </mxGeometry>
        </mxCell>
        <mxCell id="p_iozzSVwlxw_jL1uEFu-115" value="[#]" style="edgeStyle=orthogonalEdgeStyle;rounded=0;orthogonalLoop=1;jettySize=auto;html=1;" edge="1" parent="1" source="p_iozzSVwlxw_jL1uEFu-113" target="p_iozzSVwlxw_jL1uEFu-114">
          <mxGeometry relative="1" as="geometry" />
        </mxCell>
        <mxCell id="p_iozzSVwlxw_jL1uEFu-113" value="Settings: Cols&lt;div&gt;(menu=201)&lt;/div&gt;&lt;div&gt;* to erase, numbers to write, # to save.&lt;/div&gt;" style="rounded=1;whiteSpace=wrap;html=1;fillColor=#008a00;strokeColor=#005700;fontColor=#ffffff;" vertex="1" parent="1">
          <mxGeometry x="670" y="230" width="91" height="90" as="geometry" />
        </mxCell>
        <mxCell id="p_iozzSVwlxw_jL1uEFu-114" value="Settings: Lines&lt;div&gt;(menu=202)&lt;/div&gt;&lt;div&gt;* to erase, numbers to write, # to save.&lt;/div&gt;" style="rounded=1;whiteSpace=wrap;html=1;fillColor=#008a00;strokeColor=#005700;fontColor=#ffffff;" vertex="1" parent="1">
          <mxGeometry x="670" y="360" width="91" height="90" as="geometry" />
        </mxCell>
        <mxCell id="p_iozzSVwlxw_jL1uEFu-119" value="Settings: mHz&lt;div&gt;(menu=203)&lt;/div&gt;&lt;div&gt;* to erase, numbers to write, # to save.&lt;/div&gt;" style="rounded=1;whiteSpace=wrap;html=1;fillColor=#008a00;strokeColor=#005700;fontColor=#ffffff;" vertex="1" parent="1">
          <mxGeometry x="670" y="490" width="91" height="90" as="geometry" />
        </mxCell>
        <mxCell id="p_iozzSVwlxw_jL1uEFu-120" value="[#]" style="edgeStyle=orthogonalEdgeStyle;rounded=0;orthogonalLoop=1;jettySize=auto;html=1;exitX=0.5;exitY=1;exitDx=0;exitDy=0;entryX=0.5;entryY=0;entryDx=0;entryDy=0;" edge="1" parent="1" source="p_iozzSVwlxw_jL1uEFu-114" target="p_iozzSVwlxw_jL1uEFu-119">
          <mxGeometry relative="1" as="geometry">
            <mxPoint x="750" y="390" as="sourcePoint" />
            <mxPoint x="750" y="430" as="targetPoint" />
          </mxGeometry>
        </mxCell>
        <mxCell id="p_iozzSVwlxw_jL1uEFu-121" value="NPoints &amp;gt; 6?" style="rhombus;whiteSpace=wrap;html=1;fillColor=#fa6800;fontColor=#000000;strokeColor=#C73500;" vertex="1" parent="1">
          <mxGeometry x="554.5" y="625" width="105.5" height="70" as="geometry" />
        </mxCell>
        <mxCell id="p_iozzSVwlxw_jL1uEFu-122" value="[#]" style="endArrow=classic;html=1;rounded=0;entryX=0.5;entryY=0;entryDx=0;entryDy=0;exitX=0.5;exitY=1;exitDx=0;exitDy=0;" edge="1" parent="1" source="p_iozzSVwlxw_jL1uEFu-91" target="p_iozzSVwlxw_jL1uEFu-121">
          <mxGeometry width="50" height="50" relative="1" as="geometry">
            <mxPoint x="680" y="570" as="sourcePoint" />
            <mxPoint x="680" y="610" as="targetPoint" />
          </mxGeometry>
        </mxCell>
        <mxCell id="p_iozzSVwlxw_jL1uEFu-123" value="1" style="endArrow=classic;html=1;rounded=0;exitX=0;exitY=0.5;exitDx=0;exitDy=0;entryX=0.5;entryY=0;entryDx=0;entryDy=0;" edge="1" parent="1" source="p_iozzSVwlxw_jL1uEFu-121" target="p_iozzSVwlxw_jL1uEFu-102">
          <mxGeometry width="50" height="50" relative="1" as="geometry">
            <mxPoint x="340" y="550" as="sourcePoint" />
            <mxPoint x="390" y="500" as="targetPoint" />
          </mxGeometry>
        </mxCell>
        <mxCell id="p_iozzSVwlxw_jL1uEFu-124" value="0" style="endArrow=classic;html=1;rounded=0;exitX=0.5;exitY=1;exitDx=0;exitDy=0;entryX=0.5;entryY=0;entryDx=0;entryDy=0;" edge="1" parent="1" source="p_iozzSVwlxw_jL1uEFu-121" target="p_iozzSVwlxw_jL1uEFu-103">
          <mxGeometry width="50" height="50" relative="1" as="geometry">
            <mxPoint x="620" y="710" as="sourcePoint" />
            <mxPoint x="580" y="768" as="targetPoint" />
          </mxGeometry>
        </mxCell>
        <mxCell id="p_iozzSVwlxw_jL1uEFu-125" value="" style="endArrow=classic;html=1;rounded=0;exitX=0.5;exitY=0;exitDx=0;exitDy=0;entryX=0.5;entryY=1;entryDx=0;entryDy=0;" edge="1" parent="1" source="p_iozzSVwlxw_jL1uEFu-102" target="p_iozzSVwlxw_jL1uEFu-5">
          <mxGeometry width="50" height="50" relative="1" as="geometry">
            <mxPoint x="500" y="720" as="sourcePoint" />
            <mxPoint x="550" y="670" as="targetPoint" />
            <Array as="points">
              <mxPoint x="519" y="100" />
              <mxPoint x="390" y="100" />
            </Array>
          </mxGeometry>
        </mxCell>
        <mxCell id="p_iozzSVwlxw_jL1uEFu-126" value="[Any]" style="text;html=1;align=center;verticalAlign=middle;resizable=0;points=[];autosize=1;strokeColor=none;fillColor=none;" vertex="1" parent="1">
          <mxGeometry x="477" y="676" width="50" height="30" as="geometry" />
        </mxCell>
        <mxCell id="p_iozzSVwlxw_jL1uEFu-127" value="" style="endArrow=classic;html=1;rounded=0;exitX=0;exitY=0.5;exitDx=0;exitDy=0;entryX=0.5;entryY=1;entryDx=0;entryDy=0;" edge="1" parent="1" source="p_iozzSVwlxw_jL1uEFu-103" target="p_iozzSVwlxw_jL1uEFu-5">
          <mxGeometry width="50" height="50" relative="1" as="geometry">
            <mxPoint x="550" y="630" as="sourcePoint" />
            <mxPoint x="600" y="580" as="targetPoint" />
            <Array as="points">
              <mxPoint x="520" y="630" />
              <mxPoint x="520" y="100" />
              <mxPoint x="390" y="100" />
            </Array>
          </mxGeometry>
        </mxCell>
        <mxCell id="p_iozzSVwlxw_jL1uEFu-128" value="[Any]" style="text;html=1;align=center;verticalAlign=middle;resizable=0;points=[];autosize=1;strokeColor=none;fillColor=none;" vertex="1" parent="1">
          <mxGeometry x="560" y="755" width="50" height="30" as="geometry" />
        </mxCell>
        <mxCell id="p_iozzSVwlxw_jL1uEFu-130" value="Settings: Image Step (nm)&lt;div&gt;(menu=203)&lt;/div&gt;&lt;div&gt;* to erase, numbers to write, # to save.&lt;/div&gt;" style="rounded=1;whiteSpace=wrap;html=1;fillColor=#008a00;strokeColor=#005700;fontColor=#ffffff;" vertex="1" parent="1">
          <mxGeometry x="700" y="618" width="91" height="95" as="geometry" />
        </mxCell>
        <mxCell id="p_iozzSVwlxw_jL1uEFu-131" value="[#]" style="edgeStyle=orthogonalEdgeStyle;rounded=0;orthogonalLoop=1;jettySize=auto;html=1;exitX=0.5;exitY=1;exitDx=0;exitDy=0;entryX=0.5;entryY=0;entryDx=0;entryDy=0;" edge="1" parent="1" source="p_iozzSVwlxw_jL1uEFu-119" target="p_iozzSVwlxw_jL1uEFu-130">
          <mxGeometry relative="1" as="geometry">
            <mxPoint x="740" y="510" as="sourcePoint" />
            <mxPoint x="740" y="550" as="targetPoint" />
          </mxGeometry>
        </mxCell>
        <mxCell id="p_iozzSVwlxw_jL1uEFu-132" value="" style="endArrow=classic;html=1;rounded=0;entryX=0.5;entryY=1;entryDx=0;entryDy=0;exitX=0.75;exitY=0;exitDx=0;exitDy=0;" edge="1" parent="1" source="p_iozzSVwlxw_jL1uEFu-130" target="p_iozzSVwlxw_jL1uEFu-24">
          <mxGeometry width="50" height="50" relative="1" as="geometry">
            <mxPoint x="780" y="600" as="sourcePoint" />
            <mxPoint x="550" y="440" as="targetPoint" />
            <Array as="points">
              <mxPoint x="768" y="600" />
              <mxPoint x="780" y="600" />
            </Array>
          </mxGeometry>
        </mxCell>
        <mxCell id="p_iozzSVwlxw_jL1uEFu-133" value="[#]" style="text;html=1;align=center;verticalAlign=middle;resizable=0;points=[];autosize=1;strokeColor=none;fillColor=none;" vertex="1" parent="1">
          <mxGeometry x="758" y="594" width="40" height="30" as="geometry" />
        </mxCell>
        <mxCell id="p_iozzSVwlxw_jL1uEFu-135" value="(menu 21)" style="rounded=1;whiteSpace=wrap;html=1;fillColor=#76608a;strokeColor=#432D57;fontColor=#ffffff;" vertex="1" parent="1">
          <mxGeometry x="838" y="100" width="122" height="30" as="geometry" />
        </mxCell>
        <mxCell id="p_iozzSVwlxw_jL1uEFu-142" value="1" style="edgeStyle=orthogonalEdgeStyle;rounded=0;orthogonalLoop=1;jettySize=auto;html=1;" edge="1" parent="1" source="p_iozzSVwlxw_jL1uEFu-137" target="p_iozzSVwlxw_jL1uEFu-141">
          <mxGeometry relative="1" as="geometry" />
        </mxCell>
        <mxCell id="p_iozzSVwlxw_jL1uEFu-137" value="Calibrated?" style="rhombus;whiteSpace=wrap;html=1;fillColor=#76608a;fontColor=#ffffff;strokeColor=#432D57;" vertex="1" parent="1">
          <mxGeometry x="840" y="162" width="119" height="70" as="geometry" />
        </mxCell>
        <mxCell id="p_iozzSVwlxw_jL1uEFu-139" value="" style="endArrow=classic;html=1;rounded=0;exitX=0.5;exitY=1;exitDx=0;exitDy=0;entryX=0.5;entryY=0;entryDx=0;entryDy=0;" edge="1" parent="1" source="p_iozzSVwlxw_jL1uEFu-135" target="p_iozzSVwlxw_jL1uEFu-137">
          <mxGeometry width="50" height="50" relative="1" as="geometry">
            <mxPoint x="780" y="210" as="sourcePoint" />
            <mxPoint x="830" y="160" as="targetPoint" />
          </mxGeometry>
        </mxCell>
        <mxCell id="p_iozzSVwlxw_jL1uEFu-140" value="0" style="endArrow=classic;html=1;rounded=0;exitX=0;exitY=0.5;exitDx=0;exitDy=0;entryX=0.75;entryY=1;entryDx=0;entryDy=0;" edge="1" parent="1" source="p_iozzSVwlxw_jL1uEFu-137" target="p_iozzSVwlxw_jL1uEFu-24">
          <mxGeometry width="50" height="50" relative="1" as="geometry">
            <mxPoint x="920" y="160" as="sourcePoint" />
            <mxPoint x="921" y="192" as="targetPoint" />
          </mxGeometry>
        </mxCell>
        <mxCell id="p_iozzSVwlxw_jL1uEFu-144" value="[#]" style="edgeStyle=orthogonalEdgeStyle;rounded=0;orthogonalLoop=1;jettySize=auto;html=1;" edge="1" parent="1" source="p_iozzSVwlxw_jL1uEFu-141" target="p_iozzSVwlxw_jL1uEFu-143">
          <mxGeometry relative="1" as="geometry" />
        </mxCell>
        <mxCell id="p_iozzSVwlxw_jL1uEFu-141" value="Confirm AFM tuning" style="rounded=1;whiteSpace=wrap;html=1;fillColor=#76608a;strokeColor=#432D57;fontColor=#ffffff;" vertex="1" parent="1">
          <mxGeometry x="840" y="280" width="120" height="30" as="geometry" />
        </mxCell>
        <mxCell id="p_iozzSVwlxw_jL1uEFu-147" value="" style="edgeStyle=orthogonalEdgeStyle;rounded=0;orthogonalLoop=1;jettySize=auto;html=1;" edge="1" parent="1" source="p_iozzSVwlxw_jL1uEFu-143" target="p_iozzSVwlxw_jL1uEFu-146">
          <mxGeometry relative="1" as="geometry" />
        </mxCell>
        <mxCell id="p_iozzSVwlxw_jL1uEFu-143" value="Confirm AFM Hz" style="rounded=1;whiteSpace=wrap;html=1;fillColor=#76608a;strokeColor=#432D57;fontColor=#ffffff;" vertex="1" parent="1">
          <mxGeometry x="840" y="350" width="120" height="30" as="geometry" />
        </mxCell>
        <mxCell id="p_iozzSVwlxw_jL1uEFu-146" value="i=0, j=0" style="rounded=1;whiteSpace=wrap;html=1;fillColor=#76608a;strokeColor=#432D57;fontColor=#ffffff;" vertex="1" parent="1">
          <mxGeometry x="800" y="420" width="59" height="30" as="geometry" />
        </mxCell>
        <mxCell id="p_iozzSVwlxw_jL1uEFu-148" value="Acquire AFM Image" style="rounded=1;whiteSpace=wrap;html=1;fillColor=#ffcccc;strokeColor=#36393d;" vertex="1" parent="1">
          <mxGeometry x="798" y="480" width="62" height="60" as="geometry" />
        </mxCell>
        <mxCell id="p_iozzSVwlxw_jL1uEFu-149" value="" style="endArrow=classic;html=1;rounded=0;exitX=0.5;exitY=1;exitDx=0;exitDy=0;entryX=0.5;entryY=0;entryDx=0;entryDy=0;" edge="1" parent="1" source="p_iozzSVwlxw_jL1uEFu-146" target="p_iozzSVwlxw_jL1uEFu-148">
          <mxGeometry width="50" height="50" relative="1" as="geometry">
            <mxPoint x="900" y="520" as="sourcePoint" />
            <mxPoint x="950" y="470" as="targetPoint" />
          </mxGeometry>
        </mxCell>
        <mxCell id="p_iozzSVwlxw_jL1uEFu-154" value="1" style="edgeStyle=orthogonalEdgeStyle;rounded=0;orthogonalLoop=1;jettySize=auto;html=1;" edge="1" parent="1" source="p_iozzSVwlxw_jL1uEFu-151" target="p_iozzSVwlxw_jL1uEFu-153">
          <mxGeometry relative="1" as="geometry" />
        </mxCell>
        <mxCell id="p_iozzSVwlxw_jL1uEFu-151" value="i &amp;lt; rows" style="rhombus;whiteSpace=wrap;html=1;fillColor=#76608a;fontColor=#ffffff;strokeColor=#432D57;" vertex="1" parent="1">
          <mxGeometry x="890" y="465" width="70" height="55" as="geometry" />
        </mxCell>
        <mxCell id="p_iozzSVwlxw_jL1uEFu-152" value="" style="endArrow=classic;html=1;rounded=0;exitX=1;exitY=0.5;exitDx=0;exitDy=0;entryX=0;entryY=0.5;entryDx=0;entryDy=0;" edge="1" parent="1" source="p_iozzSVwlxw_jL1uEFu-148" target="p_iozzSVwlxw_jL1uEFu-151">
          <mxGeometry width="50" height="50" relative="1" as="geometry">
            <mxPoint x="930" y="480" as="sourcePoint" />
            <mxPoint x="980" y="430" as="targetPoint" />
          </mxGeometry>
        </mxCell>
        <mxCell id="p_iozzSVwlxw_jL1uEFu-159" value="1" style="edgeStyle=orthogonalEdgeStyle;rounded=0;orthogonalLoop=1;jettySize=auto;html=1;" edge="1" parent="1" source="p_iozzSVwlxw_jL1uEFu-153" target="p_iozzSVwlxw_jL1uEFu-158">
          <mxGeometry relative="1" as="geometry" />
        </mxCell>
        <mxCell id="p_iozzSVwlxw_jL1uEFu-153" value="j &amp;lt; cols" style="rhombus;whiteSpace=wrap;html=1;fillColor=#76608a;fontColor=#ffffff;strokeColor=#432D57;" vertex="1" parent="1">
          <mxGeometry x="1000" y="435" width="60" height="55" as="geometry" />
        </mxCell>
        <mxCell id="p_iozzSVwlxw_jL1uEFu-155" value="0" style="endArrow=classic;html=1;rounded=0;exitX=0.5;exitY=1;exitDx=0;exitDy=0;entryX=0.5;entryY=0;entryDx=0;entryDy=0;" edge="1" parent="1" source="p_iozzSVwlxw_jL1uEFu-151" target="p_iozzSVwlxw_jL1uEFu-156">
          <mxGeometry width="50" height="50" relative="1" as="geometry">
            <mxPoint x="940" y="570" as="sourcePoint" />
            <mxPoint x="990" y="550" as="targetPoint" />
          </mxGeometry>
        </mxCell>
        <mxCell id="p_iozzSVwlxw_jL1uEFu-156" value="Homing&lt;div&gt;Y-&lt;span style=&quot;background-color: transparent; color: light-dark(rgb(255, 255, 255), rgb(18, 18, 18));&quot;&gt;[rows+1]*imgSteps&lt;/span&gt;&lt;/div&gt;" style="rounded=1;whiteSpace=wrap;html=1;fillColor=#76608a;strokeColor=#432D57;fontColor=#ffffff;" vertex="1" parent="1">
          <mxGeometry x="910" y="540" width="110" height="50" as="geometry" />
        </mxCell>
        <mxCell id="p_iozzSVwlxw_jL1uEFu-157" value="" style="endArrow=classic;html=1;rounded=0;exitX=0;exitY=0.5;exitDx=0;exitDy=0;entryX=0.5;entryY=1;entryDx=0;entryDy=0;" edge="1" parent="1" source="p_iozzSVwlxw_jL1uEFu-156" target="p_iozzSVwlxw_jL1uEFu-24">
          <mxGeometry width="50" height="50" relative="1" as="geometry">
            <mxPoint x="890" y="650" as="sourcePoint" />
            <mxPoint x="940" y="600" as="targetPoint" />
            <Array as="points">
              <mxPoint x="780" y="565" />
            </Array>
          </mxGeometry>
        </mxCell>
        <mxCell id="p_iozzSVwlxw_jL1uEFu-158" value="+j, X+ imgSteps" style="rounded=1;whiteSpace=wrap;html=1;fillColor=#76608a;strokeColor=#432D57;fontColor=#ffffff;" vertex="1" parent="1">
          <mxGeometry x="895" y="410" width="60" height="40" as="geometry" />
        </mxCell>
        <mxCell id="p_iozzSVwlxw_jL1uEFu-163" value="0" style="endArrow=classic;html=1;rounded=0;exitX=0.5;exitY=1;exitDx=0;exitDy=0;entryX=0.75;entryY=0;entryDx=0;entryDy=0;" edge="1" parent="1" source="p_iozzSVwlxw_jL1uEFu-153" target="p_iozzSVwlxw_jL1uEFu-164">
          <mxGeometry width="50" height="50" relative="1" as="geometry">
            <mxPoint x="1050" y="680" as="sourcePoint" />
            <mxPoint x="1100" y="630" as="targetPoint" />
          </mxGeometry>
        </mxCell>
        <mxCell id="p_iozzSVwlxw_jL1uEFu-164" value="+i, j=0, X- cols*imgSteps, Y+ imgSteps" style="rounded=1;whiteSpace=wrap;html=1;fillColor=#76608a;strokeColor=#432D57;fontColor=#ffffff;" vertex="1" parent="1">
          <mxGeometry x="950" y="624" width="110" height="56" as="geometry" />
        </mxCell>
        <mxCell id="p_iozzSVwlxw_jL1uEFu-166" value="" style="endArrow=none;dashed=1;html=1;dashPattern=1 3;strokeWidth=2;rounded=0;exitX=0.5;exitY=1;exitDx=0;exitDy=0;entryX=0.5;entryY=0;entryDx=0;entryDy=0;" edge="1" parent="1" source="p_iozzSVwlxw_jL1uEFu-148" target="p_iozzSVwlxw_jL1uEFu-167">
          <mxGeometry width="50" height="50" relative="1" as="geometry">
            <mxPoint x="850" y="690" as="sourcePoint" />
            <mxPoint x="880" y="680" as="targetPoint" />
          </mxGeometry>
        </mxCell>
        <mxCell id="p_iozzSVwlxw_jL1uEFu-167" value="Engage (timer)&lt;div&gt;Any key to force skip&lt;/div&gt;" style="rounded=1;whiteSpace=wrap;html=1;fillColor=#ffcccc;strokeColor=#36393d;" vertex="1" parent="1">
          <mxGeometry x="820" y="648" width="70" height="60" as="geometry" />
        </mxCell>
        <mxCell id="p_iozzSVwlxw_jL1uEFu-168" value="" style="endArrow=classic;html=1;rounded=0;exitX=0;exitY=0.5;exitDx=0;exitDy=0;entryX=1;entryY=0.75;entryDx=0;entryDy=0;" edge="1" parent="1" source="p_iozzSVwlxw_jL1uEFu-164" target="p_iozzSVwlxw_jL1uEFu-148">
          <mxGeometry width="50" height="50" relative="1" as="geometry">
            <mxPoint x="920" y="640" as="sourcePoint" />
            <mxPoint x="970" y="590" as="targetPoint" />
          </mxGeometry>
        </mxCell>
        <mxCell id="p_iozzSVwlxw_jL1uEFu-169" value="" style="endArrow=classic;html=1;rounded=0;exitX=0;exitY=0.5;exitDx=0;exitDy=0;entryX=1;entryY=0.25;entryDx=0;entryDy=0;" edge="1" parent="1" source="p_iozzSVwlxw_jL1uEFu-158" target="p_iozzSVwlxw_jL1uEFu-148">
          <mxGeometry width="50" height="50" relative="1" as="geometry">
            <mxPoint x="850" y="510" as="sourcePoint" />
            <mxPoint x="900" y="460" as="targetPoint" />
          </mxGeometry>
        </mxCell>
        <mxCell id="p_iozzSVwlxw_jL1uEFu-170" value="" style="endArrow=classic;html=1;rounded=0;exitX=0.5;exitY=1;exitDx=0;exitDy=0;entryX=0.5;entryY=0;entryDx=0;entryDy=0;" edge="1" parent="1" source="p_iozzSVwlxw_jL1uEFu-167" target="p_iozzSVwlxw_jL1uEFu-171">
          <mxGeometry width="50" height="50" relative="1" as="geometry">
            <mxPoint x="830" y="870" as="sourcePoint" />
            <mxPoint x="780" y="740" as="targetPoint" />
          </mxGeometry>
        </mxCell>
        <mxCell id="p_iozzSVwlxw_jL1uEFu-171" value="Frame Down" style="rounded=1;whiteSpace=wrap;html=1;fillColor=#ffcccc;strokeColor=#36393d;" vertex="1" parent="1">
          <mxGeometry x="758" y="743" width="50" height="40" as="geometry" />
        </mxCell>
        <mxCell id="p_iozzSVwlxw_jL1uEFu-172" value="Capture&lt;div&gt;+Withdraw&lt;/div&gt;" style="rounded=1;whiteSpace=wrap;html=1;fillColor=#ffcccc;strokeColor=#36393d;" vertex="1" parent="1">
          <mxGeometry x="850" y="743" width="60" height="40" as="geometry" />
        </mxCell>
        <mxCell id="p_iozzSVwlxw_jL1uEFu-173" value="Wait (calculated from lines and mHz) Any key to force skip" style="rounded=1;whiteSpace=wrap;html=1;fillColor=#ffcccc;strokeColor=#36393d;" vertex="1" parent="1">
          <mxGeometry x="950" y="720" width="80" height="88" as="geometry" />
        </mxCell>
        <mxCell id="p_iozzSVwlxw_jL1uEFu-174" value="" style="endArrow=classic;html=1;rounded=0;exitX=1;exitY=0.5;exitDx=0;exitDy=0;entryX=0;entryY=0.5;entryDx=0;entryDy=0;" edge="1" parent="1" source="p_iozzSVwlxw_jL1uEFu-171" target="p_iozzSVwlxw_jL1uEFu-172">
          <mxGeometry width="50" height="50" relative="1" as="geometry">
            <mxPoint x="860" y="760" as="sourcePoint" />
            <mxPoint x="910" y="710" as="targetPoint" />
          </mxGeometry>
        </mxCell>
        <mxCell id="p_iozzSVwlxw_jL1uEFu-175" value="" style="endArrow=classic;html=1;rounded=0;exitX=1;exitY=0.5;exitDx=0;exitDy=0;entryX=0;entryY=0.5;entryDx=0;entryDy=0;" edge="1" parent="1" source="p_iozzSVwlxw_jL1uEFu-172" target="p_iozzSVwlxw_jL1uEFu-173">
          <mxGeometry width="50" height="50" relative="1" as="geometry">
            <mxPoint x="750" y="750" as="sourcePoint" />
            <mxPoint x="800" y="700" as="targetPoint" />
          </mxGeometry>
        </mxCell>
        <mxCell id="p_iozzSVwlxw_jL1uEFu-178" value="NOTE:&lt;div&gt;&lt;br&gt;&lt;/div&gt;&lt;div&gt;Hitting the &#39;abort&#39; button will abort any on-going acquisition and return to the main menu (menu=1).&lt;/div&gt;&lt;div&gt;&lt;br&gt;&lt;/div&gt;&lt;div&gt;If you press the button anywhere else in the programme (besides the manual movement X-, X+, Y- and Y+ routines), you will return to the main menu.&amp;nbsp;&lt;/div&gt;" style="rounded=0;whiteSpace=wrap;html=1;" vertex="1" parent="1">
          <mxGeometry x="90" y="475" width="210" height="170" as="geometry" />
        </mxCell>
      </root>
    </mxGraphModel>
  </diagram>
</mxfile>
